<?xml version="1.0" encoding="UTF-8" standalone="no"?>
<svg width="640px" height="95px" viewBox="0 0 640 95" version="1.1" xmlns="http://www.w3.org/2000/svg" xmlns:xlink="http://www.w3.org/1999/xlink">
    <!-- Generator: Sketch 3.8.2 (29753) - http://www.bohemiancoding.com/sketch -->
    <title>btn1</title>
    <desc>Created with Sketch.</desc>
    <defs></defs>
    <g id="Page-1" stroke="none" stroke-width="1" fill="none" fill-rule="evenodd">
        <g id="btn1">
            <g id="Group">
                <g id="Group-3">
                    <rect id="Rectangle-6" fill="#54C7F4" x="0" y="0" width="640" height="95"></rect>
                    <g id="Group-7" transform="translate(33.000000, 31.000000)">
                        <g id="Group-5">
                            <g id="Group-2" transform="translate(0.498865, 0.434397)">
                                <path d="M13.9823121,0 C6.34591349,0 0.129953254,6.25743534 0.129953254,13.9478743 C0.129953254,18.4439697 2.30009035,22.6870847 5.93837021,25.3017677 L6.10985916,25.4152156 C6.95496656,25.9149658 7.03886043,27.5235237 7.01912069,27.8195646 L7.01500825,27.9628236 L7.01500825,32.5433838 C7.01500825,33.4174291 7.499043,34.2136342 8.27218261,34.6136 L12.9328162,37.0092541 C13.2618118,37.1785978 13.622062,37.2638907 13.9823121,37.2638907 C14.3384499,37.2638907 14.6958213,37.1798399 15.0239944,37.0146367 L19.7380898,34.6173264 C20.5161644,34.2231572 21.0059565,33.4211555 21.0059565,32.5429698 L21.0059565,27.9909785 C21.0059565,25.697179 22.3963741,24.9386518 22.4115901,24.9345114 L22.9219445,24.6012066 C26.0453463,21.9405648 27.8342598,18.0601517 27.8342598,13.9474602 C27.834671,6.25743534 21.6211783,0 13.9823121,0 L13.9823121,0 Z M13.9823121,34.9398661 L9.32496846,32.5433838 L18.6984638,32.5433838 L13.9823121,34.9398661 L13.9823121,34.9398661 Z M18.6947626,27.9909785 L18.6947626,30.2181171 L9.32496846,30.2181171 L9.32496846,27.96655 L9.32496846,27.8940924 L18.7046324,27.8940924 L18.6947626,27.9909785 L18.6947626,27.9909785 Z" id="Shape" fill="#FFFFFF"></path>
                                <path d="M13.9823121,5.81109673 C13.9823121,6.45327778 14.5004802,6.97373012 15.1370866,6.97373012 C17.7345067,6.97373012 20.9084916,9.35158039 20.9084916,12.8941343 C20.9084916,13.5375575 21.4266596,14.0571817 22.0632661,14.0571817 C22.7002838,14.0571817 23.2184518,13.5375575 23.2184518,12.8941343 C23.2180405,7.59189667 19.1055958,4.64846334 15.1370866,4.64846334 C14.5004802,4.64846334 13.9823121,5.16974377 13.9823121,5.81109673 Z" id="Shape" fill="#85D7F7"></path>
                            </g>
                        </g>
                    </g>
                    <text id="TURN-ON-ALL-LIGHTS" font-family="ProximaNova-Semibold, Proxima Nova" font-size="22" font-weight="500" fill="#FFFFFF">
                        <tspan x="210.729469" y="55">TURN ON ALL LIGHTS</tspan>
                    </text>
                    <g id="Group-5" transform="translate(18.000000, 12.000000)" stroke-linecap="round" stroke="#FFFFFF" stroke-width="3">
                        <g id="Group-4" transform="translate(0.000000, 0.188602)">
                            <path d="M29.8691116,0.417209412 L29.8691116,10.4649425" id="Line"></path>
                            <path d="M58.6094968,30.4909943 L49.2646386,30.4909943" id="Line"></path>
                            <path d="M9.73276875,30.4909943 L0.387910541,30.4909943" id="Line"></path>
                            <path d="M49.6810205,8.34827384 L43.05807,15.4714555" id="Line"></path>
                            <path d="M15.544893,8.34827384 L8.92194243,15.4714555" id="Line" transform="translate(12.413137, 12.099073) scale(-1, 1) translate(-12.413137, -12.099073) "></path>
                        </g>
                    </g>
                </g>
                <rect id="Rectangle-58" fill-opacity="0.289999992" fill="#FFFFFF" x="0" y="0" width="95" height="95"></rect>
            </g>
            <g id="Group">
                <g id="Group-3">
                    <rect id="Rectangle-6" fill="#54C7F4" x="0" y="0" width="640" height="95"></rect>
                    <g id="Group-7" transform="translate(33.000000, 31.000000)">
                        <g id="Group-5">
                            <g id="Group-2" transform="translate(0.498865, 0.434397)">
                                <path d="M13.9823121,0 C6.34591349,0 0.129953254,6.25743534 0.129953254,13.9478743 C0.129953254,18.4439697 2.30009035,22.6870847 5.93837021,25.3017677 L6.10985916,25.4152156 C6.95496656,25.9149658 7.03886043,27.5235237 7.01912069,27.8195646 L7.01500825,27.9628236 L7.01500825,32.5433838 C7.01500825,33.4174291 7.499043,34.2136342 8.27218261,34.6136 L12.9328162,37.0092541 C13.2618118,37.1785978 13.622062,37.2638907 13.9823121,37.2638907 C14.3384499,37.2638907 14.6958213,37.1798399 15.0239944,37.0146367 L19.7380898,34.6173264 C20.5161644,34.2231572 21.0059565,33.4211555 21.0059565,32.5429698 L21.0059565,27.9909785 C21.0059565,25.697179 22.3963741,24.9386518 22.4115901,24.9345114 L22.9219445,24.6012066 C26.0453463,21.9405648 27.8342598,18.0601517 27.8342598,13.9474602 C27.834671,6.25743534 21.6211783,0 13.9823121,0 L13.9823121,0 Z M13.9823121,34.9398661 L9.32496846,32.5433838 L18.6984638,32.5433838 L13.9823121,34.9398661 L13.9823121,34.9398661 Z M18.6947626,27.9909785 L18.6947626,30.2181171 L9.32496846,30.2181171 L9.32496846,27.96655 L9.32496846,27.8940924 L18.7046324,27.8940924 L18.6947626,27.9909785 L18.6947626,27.9909785 Z" id="Shape" fill="#FFFFFF"></path>
                                <path d="M13.9823121,5.81109673 C13.9823121,6.45327778 14.5004802,6.97373012 15.1370866,6.97373012 C17.7345067,6.97373012 20.9084916,9.35158039 20.9084916,12.8941343 C20.9084916,13.5375575 21.4266596,14.0571817 22.0632661,14.0571817 C22.7002838,14.0571817 23.2184518,13.5375575 23.2184518,12.8941343 C23.2180405,7.59189667 19.1055958,4.64846334 15.1370866,4.64846334 C14.5004802,4.64846334 13.9823121,5.16974377 13.9823121,5.81109673 Z" id="Shape" fill="#85D7F7"></path>
                            </g>
                        </g>
                    </g>
                    <text id="T-U-R-N--O-N--A-L-L-" font-family="ProximaNova-Semibold, Proxima Nova" font-size="22" font-weight="500" fill="#FFFFFF">
                        <tspan x="170.997469" y="55">T U R N  O N  A L L  L I G H T S</tspan>
                    </text>
                    <g id="Group-5" transform="translate(18.000000, 12.000000)" stroke-linecap="round" stroke="#FFFFFF" stroke-width="3">
                        <g id="Group-4" transform="translate(0.000000, 0.188602)">
                            <path d="M29.8691116,0.417209412 L29.8691116,10.4649425" id="Line"></path>
                            <path d="M58.6094968,30.4909943 L49.2646386,30.4909943" id="Line"></path>
                            <path d="M9.73276875,30.4909943 L0.387910541,30.4909943" id="Line"></path>
                            <path d="M49.6810205,8.34827384 L43.05807,15.4714555" id="Line"></path>
                            <path d="M15.544893,8.34827384 L8.92194243,15.4714555" id="Line" transform="translate(12.413137, 12.099073) scale(-1, 1) translate(-12.413137, -12.099073) "></path>
                        </g>
                    </g>
                </g>
                <rect id="Rectangle-58" fill-opacity="0.289999992" fill="#FFFFFF" x="0" y="0" width="95" height="95"></rect>
            </g>
        </g>
    </g>
</svg>